<mxfile host="app.diagrams.net" modified="2024-03-25T13:25:52.679Z" agent="Mozilla/5.0 (Macintosh; Intel Mac OS X 10_15_7) AppleWebKit/537.36 (KHTML, like Gecko) Chrome/122.0.0.0 Safari/537.36 Edg/122.0.0.0" etag="SzMykSwpaZzDlIj179i3" version="24.0.2" type="github">
  <diagram name="Page-1" id="U54eAjU8mrK-7jIGWU4N">
    <mxGraphModel dx="1953" dy="1804" grid="1" gridSize="10" guides="1" tooltips="1" connect="1" arrows="1" fold="1" page="1" pageScale="1" pageWidth="827" pageHeight="1169" math="0" shadow="0">
      <root>
        <mxCell id="0" />
        <mxCell id="1" parent="0" />
        <mxCell id="8CZEWRUbMgtmiAW-HYdJ-2" value="" style="rounded=0;whiteSpace=wrap;html=1;fillColor=#cdeb8b;strokeColor=#36393d;" parent="1" vertex="1">
          <mxGeometry x="140" y="210" width="610" height="1480" as="geometry" />
        </mxCell>
        <mxCell id="8CZEWRUbMgtmiAW-HYdJ-4" value="&lt;font style=&quot;font-size: 24px;&quot;&gt;Tile&lt;/font&gt;&lt;div&gt;&lt;span style=&quot;font-size: 24px;&quot;&gt;610 * 200&lt;/span&gt;&lt;/div&gt;" style="rounded=0;whiteSpace=wrap;html=1;fontSize=20;fillColor=#FFFFCC;" parent="1" vertex="1">
          <mxGeometry x="140" y="1490" width="610" height="200" as="geometry" />
        </mxCell>
        <mxCell id="8CZEWRUbMgtmiAW-HYdJ-6" value="Tile&lt;div&gt;550 * 600&lt;/div&gt;" style="rounded=0;whiteSpace=wrap;html=1;fontSize=26;gradientColor=none;fillStyle=auto;fillColor=#FFFFCC;" parent="1" vertex="1">
          <mxGeometry x="200" y="890" width="550" height="600" as="geometry" />
        </mxCell>
        <mxCell id="8CZEWRUbMgtmiAW-HYdJ-5" value="Heat&lt;div style=&quot;font-size: 20px;&quot;&gt;Pump&lt;/div&gt;&lt;div style=&quot;font-size: 20px;&quot;&gt;60 * 100&lt;/div&gt;" style="rounded=0;whiteSpace=wrap;html=1;fillColor=#f8cecc;strokeColor=#b85450;fontSize=20;" parent="1" vertex="1">
          <mxGeometry x="200" y="1390" width="60" height="100" as="geometry" />
        </mxCell>
        <mxCell id="8CZEWRUbMgtmiAW-HYdJ-7" value="Garden: 610 * 1480 cm" style="text;html=1;align=center;verticalAlign=middle;resizable=0;points=[];autosize=1;strokeColor=none;fillColor=none;fontSize=26;" parent="1" vertex="1">
          <mxGeometry x="290" y="165" width="290" height="40" as="geometry" />
        </mxCell>
        <mxCell id="8CZEWRUbMgtmiAW-HYdJ-8" value="Shed base: 610 * 350" style="rounded=0;whiteSpace=wrap;html=1;verticalAlign=bottom;fontSize=24;fillColor=#eeeeee;strokeColor=#36393d;" parent="1" vertex="1">
          <mxGeometry x="140" y="210" width="610" height="350" as="geometry" />
        </mxCell>
        <mxCell id="8CZEWRUbMgtmiAW-HYdJ-3" value="SHED&lt;div&gt;520 * 300 cm&lt;/div&gt;" style="rounded=0;whiteSpace=wrap;html=1;fontSize=23;labelBackgroundColor=default;fillColor=#f9f7ed;strokeColor=#36393d;" parent="1" vertex="1">
          <mxGeometry x="185" y="210" width="520" height="300" as="geometry" />
        </mxCell>
        <mxCell id="8CZEWRUbMgtmiAW-HYdJ-10" value="Tile&lt;div&gt;60 * 100&lt;/div&gt;" style="rounded=0;whiteSpace=wrap;html=1;fontSize=20;fillColor=#FFFFCC;" parent="1" vertex="1">
          <mxGeometry x="140" y="1390" width="60" height="100" as="geometry" />
        </mxCell>
        <mxCell id="8CZEWRUbMgtmiAW-HYdJ-11" value="Path&lt;div style=&quot;font-size: 20px;&quot;&gt;Old Tile&lt;/div&gt;&lt;div style=&quot;font-size: 20px;&quot;&gt;80 * 330&lt;/div&gt;" style="rounded=0;whiteSpace=wrap;html=1;fontSize=20;fillColor=#bac8d3;strokeColor=#23445d;" parent="1" vertex="1">
          <mxGeometry x="550" y="560" width="80" height="330" as="geometry" />
        </mxCell>
        <mxCell id="8CZEWRUbMgtmiAW-HYdJ-12" value="Soil &amp;amp; Grass" style="text;html=1;align=center;verticalAlign=middle;whiteSpace=wrap;rounded=0;fontSize=23;" parent="1" vertex="1">
          <mxGeometry x="240" y="670" width="220" height="80" as="geometry" />
        </mxCell>
      </root>
    </mxGraphModel>
  </diagram>
</mxfile>
